# xmcd
#
# Track frame offsets:
# 150
# 22080
# 39579
# 53280
# 69601
# 85245
# 101975
# 114927
# 132083
# 148344
#
# Disc length: 2260 seconds
#
# Revision: 1
# Processed by: cddbd v1.5.2PL0 Copyright (c) Steve Scherf et al.
# Submitted via: CedeCatalogueitor 2.6.0.6 http://personales.ya.com/cdcatalogueitor
#
DISCID=8908d20a
DTITLE=Tachenko - Os Reis Porque Sois Jovenes
DYEAR=1900
DGENRE=
TTITLE0=Compañeros Del Metal
TTITLE1=El Respland'or
TTITLE2=Escapatoria
TTITLE3=Vamonos
TTITLE4=Tirame A Un Volcan
TTITLE5=La Resistencia
TTITLE6=El Peligro
TTITLE7=Sombras, Tormentas
TTITLE8=Decisiones Juntas
TTITLE9=Las Flores Del Mal
EXTD=
EXTT0=
EXTT1=
EXTT2=
EXTT3=
EXTT4=
EXTT5=
EXTT6=
EXTT7=
EXTT8=
EXTT9=
PLAYORDER=
